<svg height="142" width="142" xmlns="http://www.w3.org/2000/svg" xmlns:xlink="http://www.w3.org/1999/xlink"><defs><path id="a" d="m.182 35.932c0-15.464 12.76-28 29-28 15.24 0 28 12.536 28 28s-12.76 28-28 28c-16.24 0-29-12.536-29-28"/><mask id="b" fill="#fff"><use fill="#fff" fill-rule="evenodd" xlink:href="#a"/></mask></defs><g fill="none" fill-rule="evenodd"><path d="m72 132c33.137 0 60-26.863 60-60s-26.863-60-60-60-60 26.863-60 60 26.863 60 60 60z" fill="#dae1e7"/><path d="m106.455 31.463v70.456h-69.516v-82.919h54.793" fill="#fff"/><g stroke-width="2"><path d="m91.879 19 15.078 12.946" stroke="#2e3d49" stroke-linecap="round"/><path d="m91.757 19h-54.757v84h70v-71m-1 0h-14m0 0v-12.904" stroke="#2e3d49" stroke-linecap="round" stroke-linejoin="round"/><g stroke-linecap="round"><path d="m59 33h26m-26 5h15m4 0h5" stroke="#2e3d49" stroke-linejoin="round"/><path d="m46.47 34.462 1.947 1.88 4.077-4.245" stroke="#15c26b"/></g><path d="m59 48h34m-34 5h32" stroke="#2e3d49" stroke-linecap="round" stroke-linejoin="round"/><g stroke-linecap="round"><path d="m59.314 64.039h34.424m-34.738 4.961h19m4 0h8" stroke="#2e3d49" stroke-linejoin="round"/><path d="m46.47 66.322 1.947 1.88 4.077-4.245" stroke="#15c26b"/></g><path d="m47.03 85.489 1.948 1.88 4.076-4.245" stroke="#15c26b" stroke-linecap="round"/><g stroke="#02b3e4" stroke-linecap="round"><path d="m49.182 47a3.182 3.182 0 1 1 -3.182 3.182" stroke-linejoin="round"/><path d="m44.115 50.37 1.922-1.693 1.95 1.462"/></g></g><path d="m19 78.702v33.22h33.636l5.606 5.37v-5.37h16.819v-33.22z" fill="#91daee"/><path d="m30 89h34m-34 5h34m-34 5h34m-45-20v33h34l5 5v-5h17v-33z" stroke="#2e3d49" stroke-linecap="round" stroke-linejoin="round" stroke-width="2"/><g stroke="#2e3d49" stroke-width="2" transform="translate(4 42)"><path d="m124.377 21.28-4.174.716 1.97-3.748-1.97-3.748 4.174.716 2.955-3.032.61 4.19 3.797 1.874-3.798 1.874-.609 4.19zm-116.277-6.117-5.181-.735 3.926-3.756-.674-5.264 4.561 2.457 4.766-2.518-1.108 5.275 3.62 3.707-5.246.803-2.529 4.81z" fill="#ecc81a" stroke-linejoin="round"/><ellipse cx="119.499" cy="2.498" fill="#fff" rx="1.499" ry="1.498"/></g><path d="m72 103c0-15.464 12.536-28 28.491-28 14.973 0 27.509 12.536 27.509 28s-12.536 28-27.509 28c-15.955 0-28.491-12.536-28.491-28" fill="#02ccba" stroke="#2e3d49" stroke-width="2"/><g transform="translate(71.818 67.068)"><path d="m28.362 58.932c12.426 0 22.5-15.515 22.5-29.322s-10.074-25-22.5-25-22.5 11.193-22.5 25 10.074 29.322 22.5 29.322z" fill="#ecc81a" stroke="#2e3d49" stroke-width="2"/><use xlink:href="#a"/><path d="m7.182 52.932h43l.439 12.825h-43l-.44-12.825z" fill="#02b3e4" mask="url(#b)"/><g stroke="#2e3d49" stroke-width="2"><path d="m50.182 53.727c-1.304-.911-.808-.727-2.391-1.23l-10.054-2.257h-18.522s-7.935 1.663-10.07 2.259c-2.133.596-2.424 1.23-2.424 1.23" fill="#02b3e4"/><path d="m22.729 43.862v-3.002h12.496v2.951c0 1.208-.107 4.252 2.363 5.458.21.103 3.404 1.46 3.404 1.46s-4.597 4.353-12.48 4.214c-7.883-.138-11.871-4.214-11.871-4.214s2.855-1.313 3.198-1.46c2.505-1.072 2.79-3.09 2.89-5.407z" fill="#f4f4eb"/></g><path d="m15.312 25.449c0 .073-.01.143-.01.218 0 8.03 2.842 17.943 13.361 17.943s14.361-9.914 14.361-17.943c0-.164-.02-.322-.025-.483-5.222-1.345-9.007-5.464-10.257-10.68-.224-.933-.357-1.9-.39-2.894-.397 6.974-6.876 12.705-17.04 13.839z" fill="#fff" stroke="#2e3d49" stroke-linecap="round" stroke-linejoin="round" stroke-width="2"/><path d="m21.182 27.432a1.5 1.5 0 1 1 3 0 1.5 1.5 0 0 1 -3 0m11 0a1.5 1.5 0 1 1 3 0 1.5 1.5 0 0 1 -3 0m-9.136 5.5c-.864 0-1.349.422-1.142 1.176.794 2.887 3.206 4.824 6.278 4.824 3.071 0 5.826-1.937 6.618-4.824.208-.754-.618-1.176-1.14-1.176h-10.615z" fill="#2e3d48"/></g><path d="m128 103c0 15.58-12.55 28.018-28.045 28.018s-27.955-12.438-27.955-28.018" stroke="#2e3d49" stroke-width="2"/></g></svg>