<svg xmlns="http://www.w3.org/2000/svg" width="1400" height="1400"><path fill="#757575" d="M182.55 852.05l2.56 46.95c.42 7.78 6.63 15.71 13.8 17.61l23.87 6.34 77.12 20.49 23.87 6.34c7.17 1.9 16.49-1.89 20.72-8.44l25.53-39.49-187.47-49.8z"/><path opacity=".2" d="M261.34 933.21l38.56 10.25 23.87 6.34c7.17 1.9 16.49-1.89 20.72-8.44l25.53-39.49-93.77-24.92"/><path fill="#F3F3F3" d="M182.52 852.04l83.81-376.27 220.04 58.48-116.38 367.61"/><path fill="#5BC348" d="M497.21 493.47l-.01.03c.01-.03-.02-.04-.02-.04l.03.01z"/><path fill="#C6C6C5" d="M497.18 493.46s.03.01.02.04c-5.64 4.67-9.91 11.04-11.92 18.62a36.168 36.168 0 0 0 1.1 22.12l-220.04-58.48c5.6-4.68 9.92-11.07 11.93-18.66 2.02-7.59 1.44-15.24-1.1-22.09.01-.03.04-.02.04-.02l219.97 58.47z"/><path fill="#F3F3F3" d="M497.18 493.46L277.2 435c22.7-83.97 75.75-135.07 141.01-150.47 3.84-.93 7.92-1.07 12.01-.57 1.52.19 3.08.47 4.65.89 1.53.41 3.03.94 4.47 1.54 3.76 1.59 7.24 3.7 10.11 6.42 49.04 45.76 69.72 116.46 47.73 200.65z"/><path fill="#5BC348" d="M277.2 435s-.03-.01-.04.02l.01-.03.03.01z"/><path fill="#C6C6C5" d="M376.35 505.01l110.02 29.24-116.38 367.61-93.73-24.91"/><path fill="#D3DDE2" d="M497.21 493.47l-.01.03c.01-.03-.02-.04-.02-.04l.03.01z"/><path d="M387.18 464.26l.01-.03 109.99 29.23s.03.01.02.04c-5.64 4.67-9.91 11.04-11.92 18.62a36.168 36.168 0 0 0 1.1 22.12L376.36 505" opacity=".2"/><path fill="#C6C6C5" d="M434.87 284.84c1.53.41 3.03.94 4.47 1.54 3.76 1.59 7.24 3.7 10.11 6.42 49.03 45.77 69.71 116.48 47.72 200.67l-109.99-29.23"/><path fill="#1967D2" d="M290.69 891.47c-.05.14-.1.29-.16.43-.05.14-.1.29-.16.43-3.17 8.82-12.61 13.9-21.84 11.45-9.23-2.45-14.91-11.56-13.27-20.8.02-.15.05-.3.08-.45.02-.15.05-.3.08-.45l48.72-270.37c.22-1.43.52-2.86.9-4.29 5.87-22.1 28.55-35.25 50.64-29.38 22.1 5.87 35.25 28.55 29.38 50.64-.38 1.43-.84 2.83-1.36 4.18l-93.01 258.61z"/><path opacity=".2" d="M356.24 578.2c22.1 5.87 35.25 28.55 29.38 50.64-.38 1.43-.84 2.83-1.36 4.18l-93.03 258.59c-.05.14-.1.29-.16.43-.05.14-.1.29-.16.43-3.17 8.82-12.61 13.9-21.84 11.45"/><path fill-rule="evenodd" clip-rule="evenodd" fill="#E37400" d="M255.46 954.96c-109.68-29.15-89.85 152.87-60.32 206.48l-.01-.04a6.84 6.84 0 0 0 10.17 2.7l-.03.04c49.91-30.46 164.75-178.73 50.19-209.18z"/><path fill-rule="evenodd" clip-rule="evenodd" fill="#FBBC04" d="M253.14 964.81c-69.81-18.55-53.84 84.71-34.18 115.57v-.03c1.23 2.24 4.29 3.05 6.47 1.72l-.02.02c30.94-16.27 100.64-97.9 27.73-117.28z"/><path fill="#78C257" d="M1209.45 691.17c24.94-25.12 24.79-65.63-.33-90.57-25.12-24.94-65.63-24.79-90.57.33L915.31 805.66c-24.94 25.12-24.79 65.63.33 90.57 25.12 24.94 65.63 24.79 90.57-.33l203.24-204.73zM893.8 1004.75c24.94-25.12 24.79-65.63-.33-90.57s-65.63-24.79-90.57.33l-189.43 190.81c-24.94 25.12-24.79 65.63.33 90.57 25.12 24.94 65.63 24.79 90.57-.33l189.43-190.81zM684.88 977.02c24.46-24.64 24.93-63.77 1.04-87.48s-63.01-22.96-87.47 1.68l-185.82 187.17c-24.46 24.64-24.93 63.77-1.04 87.48s63.01 22.96 87.47-1.68l185.82-187.17z"/><path fill="#FFF" d="M523.77 467.23l-16.56 58.3 564.93 130.2 10.44-40.58z"/><path fill="#78C257" d="M517.63 498.82l-3.11-.83-108.3 407.93c-9.04 34.06 11.41 69.29 45.46 78.33l436.24 115.81c34.06 9.04 69.29-11.41 78.33-45.46l108.3-407.93-556.92-147.85zM521.12 476.27l558.94 148.39 7.93-29.86c1.34-8.8 2.28-17.37 2.76-26.07 3.85-76.56-30.35-151.56-90.41-205.63l63.7-67.49c3.96-4.28 3.71-10.84-.41-14.76-4.27-3.96-10.84-3.71-14.76.41l-64.42 68.3c-32.65-25.65-71.51-45.45-115.05-57.01-43.86-11.64-87.77-13.65-129.04-7.45l-22.13-91.61c-1.36-5.52-7.09-9.04-12.61-7.68-5.52 1.36-9.04 7.09-7.68 12.61l21.87 90.71c-75.22 16.82-139.53 61.52-175.11 125.32-9.22 16.53-16.46 34.42-21.5 53.39-.78 2.96-1.53 5.75-2.12 8.59l.04-.16z"/><path fill="#FFF" d="M975.09 434.64c14.46 3.84 23.14 18.8 19.3 33.26-3.84 14.46-18.8 23.15-33.26 19.31-14.46-3.84-23.15-18.8-19.31-33.26 3.85-14.47 18.81-23.15 33.27-19.31zM714.53 365.4c14.46 3.84 23.14 18.8 19.3 33.26-3.84 14.46-18.8 23.15-33.26 19.31-14.46-3.84-23.15-18.8-19.31-33.26 3.85-14.47 18.81-23.15 33.27-19.31z"/><path fill="#F3F3F3" d="M448.707 746.23l580.46 154.228-17.89 67.336-580.46-154.229z"/><g><defs><path id="a" d="M517.63 498.82l-3.11-.83-108.3 407.93c-9.04 34.06 11.41 69.29 45.46 78.33l436.24 115.81c34.06 9.04 69.29-11.41 78.33-45.46l108.3-407.93-556.92-147.85z"/></defs></g></svg>
