<svg height="142" width="142" xmlns="http://www.w3.org/2000/svg" xmlns:xlink="http://www.w3.org/1999/xlink"><defs><path id="a" d="m.182 36.143c0-15.58 12.785-28.211 28.556-28.211 15.772 0 28.557 12.63 28.557 28.21 0 15.581-12.785 28.212-28.557 28.212-15.77 0-28.556-12.63-28.556-28.211"/><mask id="b" fill="#fff"><use fill="#fff" fill-rule="evenodd" xlink:href="#a"/></mask></defs><g fill="none" fill-rule="evenodd"><path d="m72 132c33.137 0 60-26.863 60-60s-26.863-60-60-60-60 26.863-60 60 26.863 60 60 60z" fill="#dae1e7"/><path d="m106.455 31.463v70.456h-69.516v-82.919h54.793" fill="#fff"/><g stroke-width="2"><path d="m91.879 19 15.078 12.946" stroke="#2e3d49" stroke-linecap="round"/><path d="m91.757 19h-54.757v84h70v-71m-1 0h-14m0 0v-12.904" stroke="#2e3d49" stroke-linecap="round" stroke-linejoin="round"/><g stroke-linecap="round"><path d="m59 33h26m-26 5h15m4 0h5" stroke="#2e3d49" stroke-linejoin="round"/><path d="m46.47 34.462 1.947 1.88 4.077-4.245" stroke="#15c26b"/></g><path d="m59 48h34m-34 5h32" stroke="#2e3d49" stroke-linecap="round" stroke-linejoin="round"/><g stroke-linecap="round"><path d="m59.314 64.039h34.424m-34.738 4.961h19m4 0h8" stroke="#2e3d49" stroke-linejoin="round"/><path d="m46.47 66.322 1.947 1.88 4.077-4.245" stroke="#15c26b"/></g><path d="m47.03 85.489 1.948 1.88 4.076-4.245" stroke="#15c26b" stroke-linecap="round"/><g stroke="#02b3e4" stroke-linecap="round"><path d="m49.182 47a3.182 3.182 0 1 1 -3.182 3.182" stroke-linejoin="round"/><path d="m44.115 50.37 1.922-1.693 1.95 1.462"/></g></g><path d="m19 78.702v33.22h33.636l5.606 5.37v-5.37h16.819v-33.22z" fill="#91daee"/><path d="m30 89h34m-34 5h34m-34 5h34m-45-20v33h34l5 5v-5h17v-33z" stroke="#2e3d49" stroke-linecap="round" stroke-linejoin="round" stroke-width="2"/><path d="m72 103c0-15.464 12.76-28 29-28 15.24 0 28 12.536 28 28s-12.76 28-28 28c-16.24 0-29-12.536-29-28" fill="#02ccba" stroke="#2e3d49" stroke-width="2"/><g transform="translate(71.818 67.068)"><use xlink:href="#a"/><path d="m7.621 53.757h43v12h-43z" fill="#02b3e4" mask="url(#b)"/><g stroke="#2e3d49" stroke-width="2"><g><path d="m51.283 54.043c-1.304-.912-1.909-1.043-3.492-1.545l-10.054-2.259h-18.522l-10.07 2.259-2.424 1.23" fill="#02b3e4"/><path d="m22.729 43.862v-3.002h12.496v2.951c0 1.208-.107 4.252 2.363 5.458.21.103 3.404 1.46 3.404 1.46s-4.597 4.353-12.48 4.214c-7.883-.138-11.871-4.214-11.871-4.214s2.855-1.313 3.198-1.46c2.505-1.072 2.79-3.09 2.89-5.407z" fill="#f4f4eb"/></g><path d="m10.233 26.542a5.765 5.765 0 0 1 5.767-5.762 5.765 5.765 0 0 1 5.768 5.762 5.765 5.765 0 0 1 -5.768 5.763 5.765 5.765 0 0 1 -5.767-5.763z" fill="#f4f4eb" stroke-linecap="round" stroke-linejoin="round"/><path d="m35.225 26.542a5.765 5.765 0 0 1 5.767-5.762 5.765 5.765 0 0 1 5.767 5.762 5.765 5.765 0 0 1 -5.767 5.763 5.765 5.765 0 0 1 -5.767-5.763" fill="#f4f4eb"/><path d="m14.182 31.932v-16c0-7.038 6.525-13 15-13 7.475 0 14 5.962 14 13v16c0 7.038-6.525 13-14 13-8.475 0-15-5.962-15-13z" fill="#f4f4eb"/><path d="m43.182 15.932c0-9.303-5.527-15.124-15-15-8.698.123-14 5.515-14 15v5h6c4.205-.319 5.846-.073 8-3l4-6s5.847 8.681 11 9z" fill="#988d73"/></g><path d="m21.182 26.932a2 2 0 1 1 4 0 2 2 0 0 1 -4 0m11 0a2 2 0 1 1 4 0 2 2 0 0 1 -4 0m-3.686 8.254c-3.826 0-4.06-2.88-4.806-2.88-.471 0-1.108.659-.924 1.327.705 2.56 3 4.435 5.73 4.435s5.025-1.876 5.73-4.435c.184-.668-.434-1.328-.908-1.328-.626 0-.936 2.881-4.822 2.881z" fill="#2e3d48"/></g><path d="m129 103c0 15.58-12.774 28.018-28.546 28.018-15.771 0-28.454-12.438-28.454-28.018" stroke="#2e3d49" stroke-width="2"/></g></svg>